<?xml version="1.0" encoding="UTF-8"?>
<svg width="52.5881055px" height="53.3764px" viewBox="0 0 52.5881055 53.3764" version="1.1" xmlns="http://www.w3.org/2000/svg" xmlns:xlink="http://www.w3.org/1999/xlink">
    <title>Facebook</title>
    <g id="Page-1" stroke="none" stroke-width="1" fill="none" fill-rule="evenodd">
        <g id="02---MO-Website-Update---Contact-Us--Page" transform="translate(-132.6451, -3505.3118)">
            <g id="Group-16" transform="translate(0, 3276)">
                <g id="Facebook" transform="translate(133.3333, 230)">
                    <rect id="Rectangle" stroke="#FFFFFF" stroke-width="1.3764" x="0" y="0" width="51.2117055" height="52" rx="25.6058528"></rect>
                    <path d="M26.8049621,22.3936679 C27.0632264,22.3936679 27.3225369,22.3936196 27.5818949,22.3936679 C28.2523549,22.3938128 28.9229101,22.3913985 29.5933701,22.395213 C29.9676179,22.3973376 30.1126093,22.5425811 30.1136554,22.9173265 C30.1164136,23.9286226 30.1161758,24.9399186 30.1137981,25.9512147 C30.1128946,26.3195864 30.0019042,26.436293 29.6292256,26.439335 C28.7773481,26.4462398 27.925423,26.4435358 27.073498,26.4446947 C26.9883293,26.4447913 26.903113,26.4446947 26.7945954,26.4446947 C26.7893644,26.5662298 26.7812803,26.6671953 26.7812328,26.7681607 C26.7805195,29.2642909 26.7807572,31.7604693 26.7806146,34.2565994 C26.780567,34.9805472 26.7048615,35.0579492 25.9995921,35.0579492 C25.0924572,35.058172 24.1852747,35.0585286 23.2781397,35.057756 C22.7935197,35.0573215 22.6754913,34.9418703 22.675206,34.4508529 C22.6736843,31.8985181 22.6744452,29.3461834 22.6744452,26.7938487 C22.6744452,26.6994019 22.6744452,26.604955 22.6744452,26.4792673 C22.5680199,26.4792673 22.4841827,26.4792673 22.4003455,26.4792673 C21.7140976,26.4792673 21.0278022,26.4806676 20.3415068,26.4786878 C19.8892232,26.4773841 19.7565483,26.3476404 19.7551693,25.8959758 C19.7522685,24.9408843 19.7525538,23.9857446 19.7550266,23.0306048 C19.756263,22.5708282 19.8839448,22.4435953 20.3316631,22.4430159 C21.017911,22.442195 21.7042064,22.4427745 22.3905018,22.4427745 L22.6744452,22.4427745 C22.6744452,22.2716499 22.6739221,22.1215296 22.6745403,21.9714093 C22.6775361,21.249055 22.6470542,20.5246244 22.6908036,19.8048292 C22.7949939,18.0893825 23.4530899,16.6903039 25.0208888,15.8676601 C25.7406145,15.4900175 26.5190215,15.3424564 27.3261985,15.3431807 C28.0992319,15.3439532 28.8723129,15.3414424 29.6453463,15.3440981 C30.1079014,15.3456915 30.211093,15.4534652 30.2118063,15.9295624 C30.2131854,16.8284976 30.2139463,17.7274328 30.2109028,18.626368 C30.2095713,19.0102877 30.078751,19.147226 29.6985589,19.1532617 C29.1149796,19.1625326 28.5311624,19.1582834 27.947488,19.1662506 C27.7827619,19.1684717 27.6163714,19.1818952 27.4540705,19.210094 C27.1033617,19.2710306 26.8267892,19.5029469 26.8144728,19.8533563 C26.7849895,20.6926104 26.8049621,21.533651 26.8049621,22.3936679" id="Fill-1" fill="#4E79F3"></path>
                </g>
            </g>
        </g>
    </g>
</svg>