<?xml version="1.0" encoding="UTF-8"?>
<svg width="52.5881055px" height="53.3764px" viewBox="0 0 52.5881055 53.3764" version="1.1" xmlns="http://www.w3.org/2000/svg" xmlns:xlink="http://www.w3.org/1999/xlink">
    <title>Instagram</title>
    <g id="Page-1" stroke="none" stroke-width="1" fill="none" fill-rule="evenodd">
        <g id="02---MO-Website-Update---Contact-Us--Page" transform="translate(-205.8047, -3505.3118)">
            <g id="Group-16" transform="translate(0, 3276)">
                <g id="Social-Platforms" transform="translate(133.3333, 230)">
                    <g id="Instagram" transform="translate(73.1596, 0)">
                        <rect id="Rectangle-Copy-3" stroke="#FFFFFF" stroke-width="1.3764" x="0" y="0" width="51.2117055" height="52" rx="25.6058528"></rect>
                        <g id="Group-8" transform="translate(15.3635, 15.6371)" fill="#4E79F3">
                            <g id="Group-3" stroke="#4E79F3" stroke-width="0.744">
                                <path d="M18.7513855,14.8503086 C18.7513855,17.1090029 16.9416369,18.9465714 14.7172199,18.9465714 L5.49735711,18.9465714 C3.27290352,18.9465714 1.46319159,17.1090029 1.46319159,14.8503086 L1.46319159,5.58197714 C1.46319159,3.32328286 3.27290352,1.48571429 5.49735711,1.48571429 L14.7172199,1.48571429 C16.9416369,1.48571429 18.7513855,3.32328286 18.7513855,5.58197714 L18.7513855,14.8503086 Z M14.7172199,0 L5.49735711,0 C2.46609968,0 0,2.50406 0,5.58197714 L0,14.8503086 C0,17.9282257 2.46609968,20.4322857 5.49735711,20.4322857 L14.7172199,20.4322857 C17.7484774,20.4322857 20.214577,17.9282257 20.214577,14.8503086 L20.214577,5.58197714 C20.214577,2.50406 17.7484774,0 14.7172199,0 L14.7172199,0 Z" id="Fill-1"></path>
                            </g>
                            <path d="M10.1263173,13.4065809 C8.40743301,13.4093254 7.01827892,12.0065511 7.01332733,10.2631026 C7.0083658,8.51010829 8.39711751,7.09633971 10.1228422,7.09756463 C11.8405926,7.09879114 13.2258692,8.505874 13.2266743,10.2502883 C13.2274787,11.995074 11.8437019,13.4038283 10.1263173,13.4065809 M10.1167334,5.50736765 C7.53584636,5.50870543 5.44783539,7.62959971 5.44721341,10.2503997 C5.44662826,12.879074 7.54173571,15.0016769 10.1321335,14.9967825 C12.7103503,14.9919083 14.7958738,12.8651454 14.7928045,10.243974 C14.7896918,7.62491971 12.6979131,5.50603114 10.1167334,5.50736765" id="Fill-4" stroke="#4E79F3" stroke-width="0.744"></path>
                            <path d="M15.1807737,3.9188177 C14.5400421,3.92157629 14.0136589,4.461262 14.0154467,5.11356486 C14.0172437,5.77132771 14.5384691,6.29834771 15.1853827,6.29653241 C15.8297357,6.29470771 16.3602524,5.75751057 16.3578827,5.10929343 C16.3554604,4.46456771 15.8131651,3.91611629 15.1807737,3.9188177" id="Fill-6"></path>
                        </g>
                    </g>
                </g>
            </g>
        </g>
    </g>
</svg>