<?xml version="1.0" encoding="UTF-8"?>
<svg width="52.5881055px" height="53.3764px" viewBox="0 0 52.5881055 53.3764" version="1.1" xmlns="http://www.w3.org/2000/svg" xmlns:xlink="http://www.w3.org/1999/xlink">
    <title>LinkedIn</title>
    <defs>
        <polygon id="path-1" points="0 0 3.95246637 0 3.95246637 4.03247528 0 4.03247528"></polygon>
        <polygon id="path-3" points="0 0 10.6325932 0 10.6325932 11.428304 0 11.428304"></polygon>
    </defs>
    <g id="Page-1" stroke="none" stroke-width="1" fill="none" fill-rule="evenodd">
        <g id="02---MO-Website-Update---Contact-Us--Page" transform="translate(-278.9643, -3505.3118)">
            <g id="Group-16" transform="translate(0, 3276)">
                <g id="Social-Platforms" transform="translate(133.3333, 230)">
                    <g id="LinkedIn" transform="translate(146.3192, 0)">
                        <rect id="Rectangle-Copy-4" stroke="#FFFFFF" stroke-width="1.3764" x="0" y="0" width="51.2117055" height="52" rx="25.6058528"></rect>
                        <g id="Group-9" transform="translate(18.2899, 17.1266)">
                            <g id="Group-3">
                                <mask id="mask-2" fill="white">
                                    <use xlink:href="#path-1"></use>
                                </mask>
                                <g id="Clip-2"></g>
                                <path d="M2.20683242,0 C2.51167376,0.0883740019 2.81957317,0.164082289 3.0879591,0.352066008 C3.8138887,0.860614876 4.12689831,1.78051347 3.85589693,2.63111834 C3.57805513,3.5030915 2.79124579,4.0627118 1.88734453,4.03121094 C1.04235137,4.00175294 0.290508648,3.36760922 0.0699251958,2.50621805 C0.0508122553,2.43140862 0.0684363984,2.34123691 -8.04755291e-06,2.28138119 L-8.04755291e-06,2.19991205 C0.0323028814,2.07766747 0.0323028814,1.95546376 -8.04755291e-06,1.83326004 L-8.04755291e-06,1.71101547 C0.0477139471,0.874628876 0.884538839,0.0183040004 1.72534727,0 L1.80558138,0 C1.92597279,0.0327674293 2.04632396,0.0327674293 2.16671536,0 L2.20683242,0 Z" id="Fill-1" fill="#4E79F3" mask="url(#mask-2)"></path>
                            </g>
                            <g id="Group-6" transform="translate(5.816, 5.2749)">
                                <mask id="mask-4" fill="white">
                                    <use xlink:href="#path-3"></use>
                                </mask>
                                <g id="Clip-5"></g>
                                <path d="M3.27748838,1.77171812 C3.57649525,1.33421983 3.91336585,0.964544389 4.33167771,0.671966383 C5.0097646,0.197696658 5.76889036,-0.00434191772 6.58302115,0 C7.25483095,0.00370693959 7.91714463,0.0835417985 8.54066911,0.361778947 C9.53808294,0.806835814 10.0736879,1.62941269 10.3522942,2.65999328 C10.5465219,3.37854787 10.6158114,4.1156516 10.6205594,4.85524762 C10.6341598,6.98709166 10.6273596,9.11909914 10.6325932,11.2510249 C10.6329124,11.3797658 10.6045045,11.4269558 10.4677364,11.4261795 C9.43793113,11.4206229 8.40808566,11.4189886 7.37828042,11.4272418 C7.20642491,11.4286309 7.22276145,11.3376012 7.22280168,11.2249172 C7.2232443,9.35096343 7.22328454,7.47700967 7.22058861,5.60309678 C7.21998504,5.18847848 7.19053099,4.7750859 7.09400058,4.37084532 C6.85627584,3.37552444 6.22112265,2.96470586 5.22777283,3.05847301 C4.20613587,3.15489587 3.67894061,3.68718273 3.49634161,4.74244104 C3.43839922,5.07718362 3.41075588,5.41486791 3.41091683,5.75520792 C3.41168134,7.56808025 3.40793923,9.38091171 3.41473941,11.1937432 C3.41546369,11.3793163 3.36967311,11.4295706 3.18518294,11.4277729 C2.19557524,11.4180489 1.20576634,11.4174769 0.216158641,11.4283147 C0.0319098947,11.4302652 -0.00024008316,11.3742909 0,11.20122 C0.00499082688,7.62985625 0.00487011357,4.05849246 0.000283007844,0.487128664 C0,0.322760375 0.0352093918,0.269114945 0.206541814,0.270708374 C1.1560727,0.27949266 2.1057243,0.279288374 3.05525518,0.27091266 C3.22698998,0.269400945 3.28831234,0.306826089 3.28203525,0.493134664 C3.26767037,0.918906959 3.27748838,1.3454964 3.27748838,1.77171812" id="Fill-4" fill="#4E79F3" mask="url(#mask-4)"></path>
                            </g>
                            <path d="M0.28000659,11.1431813 C0.28000659,9.35135037 0.282943948,7.55947862 0.275531061,5.76768858 C0.27477568,5.58579258 0.321773395,5.54395486 0.49684793,5.54550503 C1.4928132,5.55461858 2.48889919,5.55224886 3.48490469,5.54738686 C3.62835234,5.54665143 3.69365824,5.56422001 3.69337748,5.74096801 C3.68746163,9.33141209 3.68790424,12.9218562 3.69249135,16.5123411 C3.69269254,16.6686605 3.64770671,16.7027354 3.50104004,16.7017957 C2.49167559,16.6953811 1.48219043,16.6944005 0.47286622,16.7025154 C0.310708009,16.7037977 0.27622424,16.6543605 0.276666856,16.4983271 C0.281897766,14.7132785 0.28000659,12.9282299 0.28000659,11.1431813" id="Fill-7" fill="#4E79F3"></path>
                        </g>
                    </g>
                </g>
            </g>
        </g>
    </g>
</svg>