<?xml version="1.0" encoding="UTF-8"?>
<svg width="218.108108px" height="30px" viewBox="0 0 218.108108 30" version="1.1" xmlns="http://www.w3.org/2000/svg" xmlns:xlink="http://www.w3.org/1999/xlink">
    <title>MO - Logo - Light Blue</title>
    <g id="Page-1" stroke="none" stroke-width="1" fill="none" fill-rule="evenodd">
        <g id="02---MO-Website-Update---Service-Page" transform="translate(-135, -37)" fill-rule="nonzero">
            <g id="MO---Logo---Light-Blue" transform="translate(135, 37)">
                <g id="Group" transform="translate(64.6649, 5.2536)" fill="#FFFFFF">
                    <path d="M17.9603865,0.00528995892 C15.9022291,0.00528995892 14.3235901,0.825233591 12.9981798,2.32493694 C12.2088603,0.851683386 10.7137329,0.00528995892 8.74178104,0.00528995892 C6.57047888,0.00528995892 5.27470178,1.12411627 4.28603194,2.35138674 L4.28603194,0.277722843 L0,0.277722843 L0,14.9044592 L4.28603194,14.9044592 L4.28603194,6.7473426 C4.28603194,4.78212286 5.27470178,3.77174071 6.88028005,3.77174071 C8.48585833,3.77174071 9.38832263,4.78212286 9.38832263,6.7473426 L9.38832263,14.9044592 L13.6743546,14.9044592 L13.6743546,6.7473426 C13.6743546,4.78212286 14.6603305,3.77174071 16.2686027,3.77174071 C17.8768749,3.77174071 18.7766453,4.78212286 18.7766453,6.7473426 L18.7766453,14.9044592 L23.0626772,14.9044592 L23.0626772,5.3825332 C23.0626772,1.86206554 21.1472977,0.00528995892 17.9603865,0.00528995892 L17.9603865,0.00528995892 Z" id="Path"></path>
                    <path d="M34.0915991,0.00528995892 C29.3314367,0.00528995892 25.7970093,3.35118897 25.7970093,7.47206697 L25.7970093,7.52496656 C25.7970093,11.6458446 29.3018035,14.938844 34.0350267,14.938844 C38.7682499,14.938844 42.3296165,11.592945 42.3296165,7.46942199 L42.3296165,7.4165224 C42.3296165,3.29564441 38.8248223,0.00264497946 34.0915991,0.00264497946 L34.0915991,0.00528995892 Z M38.0543602,7.52761154 C38.0543602,9.64359511 36.5727024,11.4342462 34.0915991,11.4342462 C31.6104957,11.4342462 30.0722656,9.58805054 30.0722656,7.47206697 L30.0722656,7.41916738 C30.0722656,5.30582879 31.5539234,3.51253272 34.0350267,3.51253272 C36.51613,3.51253272 38.0543602,5.35872838 38.0543602,7.47471195 L38.0543602,7.52761154 L38.0543602,7.52761154 Z" id="Shape"></path>
                    <rect id="Rectangle" x="44.9750491" y="10.3947693" width="4.63085412" height="4.54671969"></rect>
                    <path d="M60.0691013,0.00528995892 C57.5071802,0.00528995892 55.8719688,0.465516385 54.2098181,1.16908092 L55.2793057,4.30602656 C56.6612883,3.81935034 57.8142875,3.52046766 59.4494989,3.52046766 C61.5911679,3.52046766 62.6902886,4.46737031 62.6902886,6.17073708 L62.6902886,6.41407519 C61.6208011,6.06229292 60.5216804,5.81895481 58.9996137,5.81895481 C55.4220836,5.81895481 52.914041,7.27898347 52.914041,10.4450239 L52.914041,10.4979235 C52.914041,13.3650812 55.2523664,14.936199 58.0971494,14.936199 C60.182246,14.936199 61.6181071,14.2035397 62.6606555,13.0952933 L62.6606555,14.6637661 L66.8012155,14.6637661 L66.8012155,6.25008646 C66.8012155,4.30338158 66.294758,2.70581399 65.168698,1.62401739 C64.0965166,0.595120378 62.4074267,0 60.0691013,0 L60.0691013,0.00528995892 Z M62.7441671,9.55631078 C62.7441671,11.0454342 61.3918176,12.100781 59.3902326,12.100781 C58.0109439,12.100781 57.0519072,11.4501161 57.0519072,10.3418697 L57.0519072,10.2863251 C57.0519072,8.9876402 58.1779671,8.28407566 60.0098349,8.28407566 C61.0523833,8.28407566 62.008726,8.50096398 62.7414732,8.82629645 L62.7414732,9.55631078 L62.7441671,9.55631078 Z" id="Shape"></path>
                    <path d="M81.0332122,2.20591287 C79.8775191,0.968062482 78.4955365,0.00528995892 76.1545172,0.00528995892 C72.6874379,0.00528995892 69.4439543,2.48099073 69.4439543,6.88488153 L69.4439543,6.9404261 C69.4439543,11.3152221 72.6308655,13.8200177 76.1545172,13.8200177 C78.4389641,13.8200177 79.8209467,12.9127897 81.0897846,11.4263113 L81.0897846,12.1404557 C81.0897846,14.7827902 79.707802,16.1581795 76.7768134,16.1581795 C74.7752284,16.1581795 73.2235286,15.6635684 71.6745227,14.80924 L70.2090285,17.9461856 C72.1244079,18.9380529 74.438488,19.4882087 76.8899582,19.4882087 C79.8209467,19.4882087 81.9922489,18.8825084 83.4011708,17.507119 C84.6700086,16.2692686 85.3192442,14.3437236 85.3192442,11.7013891 L85.3192442,0.280367823 L81.0332122,0.280367823 L81.0332122,2.20591287 Z M81.0897846,6.93778112 C81.0897846,8.94796551 79.4815124,10.3498046 77.3964158,10.3498046 C75.3113192,10.3498046 73.7299862,8.9744153 73.7299862,6.93778112 L73.7299862,6.88223655 C73.7299862,4.87205216 75.3086252,3.47021305 77.3964158,3.47021305 C79.4842063,3.47021305 81.0897846,4.87469714 81.0897846,6.88223655 L81.0897846,6.93778112 Z" id="Shape"></path>
                    <path d="M95.2948421,0.00528995892 C90.979177,0.00528995892 87.9646768,3.37763877 87.9646768,7.47206697 L87.9646768,7.52496656 C87.9646768,11.9129875 91.2566511,14.938844 95.7097062,14.938844 C98.3928538,14.938844 100.386357,13.9205269 101.76834,12.2621248 L99.3626662,10.2016858 C98.2015853,11.2464527 97.1778944,11.6722944 95.7662786,11.6722944 C93.8859202,11.6722944 92.557816,10.7095218 92.1429518,8.86068119 L102.460678,8.86068119 C102.487617,8.4850941 102.51725,8.112152 102.51725,7.78946451 C102.51725,3.7214861 100.248967,0 95.297536,0 L95.2948421,0.00528995892 Z M92.0863794,6.32150091 C92.417732,4.47530524 93.5518737,3.26919461 95.2948421,3.26919461 C97.0378104,3.26919461 98.1719521,4.49911006 98.4197931,6.32150091 L92.0863794,6.32150091 Z" id="Shape"></path>
                    <path d="M115.224486,0.00528995892 C113.047796,0.00528995892 111.773571,1.12676125 110.784901,2.35932168 L110.784901,0.280367823 L106.485399,0.280367823 L106.485399,14.941489 L110.784901,14.941489 L110.784901,6.76321248 C110.784901,4.79270278 111.830143,3.78232063 113.473436,3.78232063 C115.11673,3.78232063 116.075766,4.79534776 116.075766,6.76321248 L116.075766,14.941489 L120.375268,14.941489 L120.375268,5.44865768 C120.375268,2.08424381 118.48144,0.00528995892 115.22718,0.00528995892 L115.224486,0.00528995892 Z" id="Path"></path>
                    <path d="M130.994713,11.4342462 C128.680633,11.4342462 127.201669,9.66739992 127.201669,7.47206697 L127.201669,7.41916738 C127.201669,5.30582879 128.707572,3.51253272 130.82769,3.51253272 C132.333593,3.51253272 133.281854,4.12881293 134.230115,5.09158546 L136.824363,2.41486625 C135.428911,0.915162893 133.672473,0.00528995892 130.854629,0.00528995892 C126.280348,0.00528995892 123.018007,3.37763877 123.018007,7.47206697 L123.018007,7.52496656 C123.018007,11.6193948 126.309981,14.938844 130.800751,14.938844 C133.785618,14.938844 135.458544,13.8411775 136.907875,12.3150244 L134.426772,9.90544807 C133.394999,10.8444158 132.419799,11.4316012 130.997407,11.4316012 L130.994713,11.4342462 Z" id="Path"></path>
                    <path d="M148.947018,0.00528995892 L145.617329,9.83932359 L142.147556,0.00528995892 L137.567886,0.00528995892 L143.543008,14.4997774 C143.17394,15.2271467 142.77524,15.4413901 142.034411,15.4413901 C141.465993,15.4413901 140.754797,15.198052 140.18638,14.8753645 L138.737049,17.8403864 C139.846945,18.4593116 141.013414,18.8375437 142.578583,18.8375437 C145.167444,18.8375437 146.417424,17.7319423 147.583893,14.7960151 L153.443176,0.00528995892 L148.949712,0.00528995892 L148.947018,0.00528995892 Z" id="Path"></path>
                </g>
                <path d="M35.8157077,2.89689549 C32.049603,0.749172167 26.6132658,-0.343204349 20.7647583,0.0958622411 C14.913557,0.534928831 9.81396022,2.33086988 6.08826433,4.84095539 C2.46493752,7.28491641 0.185878424,10.4403769 0.0107734111,13.6937016 C-0.161637679,16.9470264 1.74566,19.7533496 4.98914363,21.760889 C8.25687257,23.7842983 15.5358533,24.974539 18.3994937,24.9375093 C18.7604794,24.9322194 19.0379535,24.9295744 19.2507735,24.9269294 C19.2534674,24.9242844 19.2561613,24.9216394 19.2588552,24.9189945 C19.231916,24.9189945 19.2265282,24.9189945 19.2588552,24.9163495 C19.2588552,24.9163495 19.2588552,24.9163495 19.2588552,24.9189945 C19.4339602,24.9242844 20.5196113,24.9110595 19.2507735,24.9269294 C17.9603842,26.6408761 16.6888524,28.3336629 15.438872,30 C18.0600594,28.7198299 20.7378191,27.4132101 23.4613755,26.0827854 C26.2388104,24.725911 29.0755117,23.3372967 31.9660913,21.9275227 L31.9607035,21.9275227 C34.4741339,20.7425719 36.6400482,19.2534485 38.2483204,17.5659516 C39.8808379,15.8520049 40.826405,14.7490484 41.2277996,11.9162754 C41.6291941,9.08350244 39.6222213,5.06842362 35.8157077,2.89954047 M36.99834,11.0989768 C36.8905831,11.8898256 36.6750692,12.6595147 36.3517984,13.389529 C36.0285276,14.1195433 35.6163574,14.804593 35.1233694,15.444678 C34.6330754,16.0821181 34.0781272,16.6640136 33.4585248,17.1850745 C32.8308407,17.7193604 32.1465842,18.1716519 31.4057553,18.5604638 C30.678396,18.9439859 29.9160157,19.2375786 29.1132266,19.4491769 C28.3212131,19.6607753 27.4995665,19.7797994 26.6590625,19.8009592 C25.8374159,19.8194741 25.0588721,19.7427697 24.3207371,19.570846 C23.5799082,19.3989223 22.9010395,19.1502943 22.2814372,18.8117369 C22.1009443,18.7112277 21.9177575,18.6027835 21.7480403,18.4916944 C21.8881244,19.2164187 22.0255144,19.9437881 22.1736802,20.6632225 C21.2577463,20.6870273 20.3472002,20.7081872 19.4393481,20.726702 C19.02179,18.6160084 18.598844,16.4920899 18.1758981,14.3496565 C17.9549964,13.2387652 17.7287068,12.1199389 17.5078051,11.0011125 C16.9232238,12.2945075 16.3413363,13.5826125 15.7729185,14.8574926 C15.2071946,16.1217928 14.6414707,17.375513 14.0838286,18.6186534 C13.6070042,18.7509024 13.1247919,18.8831513 12.6533554,19.0101103 C10.7029549,17.378158 8.76063622,15.7462057 6.82370538,14.1195433 C7.31669334,16.4259654 7.81237523,18.7138727 8.29997534,20.988555 C7.43791989,21.0097148 6.58664013,21.0308747 5.73536038,21.0467445 C5.33935366,19.2587384 4.94065301,17.4522174 4.54464629,15.6404065 C4.14863957,13.8233056 3.74455108,11.9876899 3.34585043,10.1467842 C4.00855556,9.94576574 4.67664853,9.74210233 5.3447415,9.53314895 C7.79621169,11.5644932 10.2530697,13.5984824 12.7260913,15.6404065 C13.4265113,14.0639988 14.140401,12.4637862 14.8569846,10.8556387 C15.58165,9.23426627 16.317091,7.58644407 17.0606138,5.92804195 C17.7610339,5.71379861 18.4641479,5.4969103 19.1726497,5.277377 C19.3342851,6.08938569 19.4878387,6.89874941 19.6467802,7.70546814 C19.6925769,7.94087132 19.7356797,8.17362951 19.7814764,8.4063877 C19.9215604,8.16304959 20.0697261,7.92500144 20.2340555,7.69488823 C20.6839406,7.04686826 21.19848,6.4491029 21.7857553,5.90688211 C22.3784184,5.35672638 23.0384296,4.87269514 23.7523193,4.45214341 C24.4689029,4.03159168 25.2339771,3.69038933 26.0421541,3.42853636 C26.853025,3.16932837 27.6881412,3.0106296 28.5475027,2.9471501 C29.4176399,2.89689549 30.2500622,2.94186014 31.028606,3.10055891 C31.8125377,3.25925767 32.5372031,3.51053072 33.1999082,3.84644311 C33.8680012,4.19029044 34.4660521,4.61084218 34.9805915,5.10809832 C35.4816612,5.60535445 35.9046072,6.1660901 36.2359597,6.79295023 C36.5727001,7.41716538 36.8097654,8.09428012 36.9444616,8.81635952 C37.0791577,9.54108389 37.0926273,10.297548 36.9902583,11.0963318 M34.2559261,11.2206458 C34.1427813,12.0802642 33.8653073,12.8816929 33.4261978,13.6196422 C32.9897822,14.3549465 32.4375279,15.0082564 31.7748228,15.5663471 C31.3249376,15.9472241 30.8319496,16.2778466 30.3039407,16.5582144 C29.7732378,16.8359372 29.2263714,17.0501806 28.6525657,17.2115243 C28.081454,17.3702231 27.5022605,17.4627974 26.9122913,17.4786672 C26.0313784,17.4998271 25.2258953,17.3728681 24.4904542,17.0951452 C23.7523193,16.8147774 23.1246351,16.4127405 22.5993201,15.8943245 C22.0740051,15.3891335 21.6833862,14.7860782 21.4220756,14.0930935 C21.1661529,13.4001089 21.0691717,12.6436448 21.1472955,11.8210562 C21.2281132,10.9958226 21.478648,10.2181986 21.8827365,9.48024936 C22.2895189,8.74494507 22.81214,8.07841025 23.4586816,7.49651477 C24.1106111,6.90403937 24.8433582,6.42529809 25.6676987,6.06029092 C26.4947332,5.69528375 27.3594825,5.47839544 28.2646408,5.42020589 C28.8707735,5.38317618 29.4526609,5.42285087 30.0049152,5.53129503 C30.5571695,5.64767412 31.0770967,5.82753273 31.5485332,6.07087084 C32.0307455,6.31685393 32.4536915,6.61838159 32.8227589,6.97280883 C33.3669314,7.50180473 33.7629382,8.12601988 34.0188609,8.84280931 C34.2774775,9.5648887 34.3529074,10.3583825 34.2532322,11.2232908" id="Shape" fill="#161B30"></path>
            </g>
        </g>
    </g>
</svg>