<?xml version="1.0" encoding="UTF-8"?>
<svg width="266.666442px" height="36.9998841px" viewBox="0 0 266.666442 36.9998841" version="1.1" xmlns="http://www.w3.org/2000/svg" xmlns:xlink="http://www.w3.org/1999/xlink">
    <title>MO Primary Logo Option Footer</title>
    <g id="Page-1" stroke="none" stroke-width="1" fill="none" fill-rule="evenodd">
        <g id="01---MO-Website-Update---Home-Page" transform="translate(-135.3333, -5949.0001)">
            <g id="MO-Primary-Logo-Option-Footer" transform="translate(135.3333, 5949.0001)">
                <path d="M101.020268,6.48872211 C98.5033341,6.48931034 96.5737643,7.50105896 94.9530207,9.34750019 C93.9909083,7.52988203 92.161707,6.48872211 89.7504871,6.48872211 C87.0957697,6.48872211 85.5100659,7.87105308 84.304456,9.38279375 L84.304456,6.8240109 L79.0662886,6.8240109 L79.0662886,24.8649006 L84.304456,24.8649006 L84.304456,14.8062369 C84.304456,12.3827461 85.5160049,11.1357071 87.4758634,11.1357071 C89.435722,11.1357071 90.5403695,12.3827461 90.5403695,14.8062369 L90.5403695,24.8649006 L95.7785369,24.8649006 L95.7785369,14.8062369 C95.7785369,12.3827461 96.9841468,11.1357071 98.9499443,11.1357071 C100.915742,11.1357071 102.01445,12.3827461 102.01445,14.8062369 L102.01445,24.8649006 L107.252618,24.8649006 L107.252618,13.1180285 C107.252618,8.77809748 104.913853,6.48989857 101.020268,6.48872211" id="Fill-1" fill="#4E79F3"></path>
                <path d="M101.016882,6.48860447 C101.01807,6.48860447 101.019258,6.48860447 101.020446,6.48860447 C101.02104,6.48860447 101.021634,6.48860447 101.022821,6.48860447 L101.016882,6.48860447 Z" id="Fill-3" fill="#4E79F3"></path>
                <path d="M125.592261,15.7708098 C125.592261,18.382533 123.780877,20.5883803 120.746066,20.5883803 C117.711254,20.5883803 115.834541,18.3119459 115.834541,15.7002227 L115.834541,15.6355179 C115.834541,13.0296769 117.645926,10.8179474 120.680737,10.8179474 C123.715548,10.8179474 125.592261,13.0943818 125.592261,15.706105 L125.592261,15.7708098 Z M120.746066,6.48860447 C114.92588,6.48860447 110.602313,10.6179506 110.602313,15.7002227 L110.602313,15.7649276 C110.602313,20.8471997 114.890246,24.911841 120.674798,24.911841 C126.45935,24.911841 130.818551,20.7824949 130.818551,15.7002227 L130.818551,15.6355179 C130.818551,10.5532457 126.530618,6.48860447 120.746066,6.48860447 L120.746066,6.48860447 Z" id="Fill-5" fill="#4E79F3"></path>
                <polygon id="Fill-7" fill="#4E79F3" points="134.049585 24.9059587 139.709419 24.9059587 139.709419 19.3001655 134.049585 19.3001655"></polygon>
                <path d="M155.774083,18.2766524 C155.774083,20.1119173 154.12305,21.4177789 151.676197,21.4177789 C149.98953,21.4177789 148.819554,20.6177916 148.819554,19.2472252 L148.819554,19.176638 C148.819554,17.5766635 150.197394,16.7060891 152.436384,16.7060891 C153.713262,16.7060891 154.883238,16.9707908 155.774083,17.3766667 L155.774083,18.2766524 Z M152.495774,6.48272221 L152.501713,6.48860447 C149.371878,6.48860447 147.370447,7.05330137 145.339321,7.92387577 L146.645893,11.7944025 C148.338498,11.194412 149.746033,10.8238297 151.747464,10.8238297 C154.366548,10.8238297 155.708754,11.9943993 155.708754,14.0943659 L155.708754,14.3943611 C154.402182,13.9590739 153.059976,13.6590787 151.19514,13.6590787 C146.824062,13.6590787 143.753617,15.4590501 143.753617,19.3648703 L143.753617,19.4295752 C143.753617,22.9648131 146.610259,24.9059587 150.090493,24.9059587 C152.638309,24.9059587 154.396243,24.0000908 155.667181,22.6354066 L155.667181,24.5706699 L160.72718,24.5706699 L160.72718,14.1943643 C160.72718,11.7944025 160.109527,9.82384556 158.731687,8.48857267 C157.419176,7.21800464 155.358355,6.48272221 152.495774,6.48272221 L152.495774,6.48272221 Z" id="Fill-9" fill="#4E79F3"></path>
                <path d="M178.205554,15.0355274 C178.205554,17.5119586 176.239757,19.2413429 173.691941,19.2413429 C171.144125,19.2413429 169.208022,17.5472522 169.208022,15.0355274 L169.208022,14.9649403 C169.208022,12.4885091 171.138186,10.7591248 173.691941,10.7591248 C176.245696,10.7591248 178.205554,12.4885091 178.205554,14.9649403 L178.205554,15.0355274 Z M178.134287,9.20032606 C176.720813,7.67093861 175.034147,6.48860447 172.171566,6.48860447 C167.931145,6.48860447 163.969855,9.54149711 163.969855,14.9708226 L163.969855,15.0414097 C163.969855,20.4354416 167.865816,23.5236278 172.171566,23.5236278 C174.962879,23.5236278 176.655484,22.4059985 178.205554,20.5707335 L178.205554,21.4530724 C178.205554,24.7118442 176.512949,26.4059349 172.931753,26.4059349 C170.4849,26.4059349 168.584431,25.7941799 166.69584,24.7412555 L164.902272,28.6117822 C167.242225,29.8352921 170.075111,30.511752 173.068349,30.511752 C176.649546,30.511752 179.304263,29.764705 181.026563,28.0706143 C182.576633,26.5412268 183.372454,24.1706763 183.372454,20.9119046 L183.372454,6.82389326 L178.134287,6.82389326 L178.134287,9.20032606 Z" id="Fill-10" fill="#4E79F3"></path>
                <path d="M191.645492,14.2825982 C192.049342,12.0061638 193.43906,10.5179522 195.571148,10.5179522 C197.703237,10.5179522 199.087016,12.0355751 199.389903,14.2825982 L191.645492,14.2825982 Z M195.577087,6.48272221 L195.571148,6.48860447 C190.297347,6.48860447 186.60925,10.6473619 186.60925,15.7002227 L186.60925,15.7649276 C186.60925,21.1766062 190.635868,24.911841 196.07596,24.911841 C199.354269,24.911841 201.795184,23.6530375 203.48185,21.6118934 L200.542062,19.0707574 C199.122649,20.3589722 197.869528,20.8824933 196.147228,20.8824933 C193.848848,20.8824933 192.221572,19.6942769 191.71676,17.4119602 L204.331122,17.4119602 C204.366756,16.9472617 204.40239,16.4884455 204.40239,16.0884518 C204.40239,11.0708846 201.628893,6.48272221 195.577087,6.48272221 L195.577087,6.48272221 Z" id="Fill-11" fill="#4E79F3"></path>
                <path d="M219.938663,6.49448673 L219.938663,6.48860447 C217.278007,6.48860447 215.721998,7.87093543 214.510449,9.39444062 L214.510449,6.82977552 L209.254465,6.82977552 L209.254465,24.911841 L214.510449,24.911841 L214.510449,14.8237661 C214.510449,12.3943929 215.787327,11.1473539 217.794697,11.1473539 C219.802067,11.1473539 220.977982,12.3943929 220.977982,14.8237661 L220.977982,24.911841 L226.233966,24.911841 L226.233966,13.2061447 C226.233966,9.05915184 223.91777,6.49448673 219.938663,6.49448673" id="Fill-12" fill="#4E79F3"></path>
                <path d="M239.216544,20.5883803 L239.222483,20.582498 C236.395536,20.582498 234.584152,18.4060621 234.584152,15.6943405 L234.584152,15.6296356 C234.584152,13.0237947 236.425231,10.8120651 239.01462,10.8120651 C240.855699,10.8120651 242.013797,11.5708766 243.171895,12.759093 L246.343303,9.45914548 C244.63882,7.61211602 242.488914,6.48860447 239.044314,6.48860447 C233.449809,6.48860447 229.464764,10.6473619 229.464764,15.7002227 L229.464764,15.7649276 C229.464764,20.8177884 233.491382,24.911841 238.978986,24.911841 C242.625511,24.911841 244.674454,23.5589213 246.444265,21.6765983 L243.409454,18.7060573 C242.150393,19.8648624 240.956661,20.5883803 239.216544,20.5883803" id="Fill-13" fill="#4E79F3"></path>
                <path d="M261.16696,6.49448673 L261.16696,6.48860447 L257.098769,18.6178234 L252.858348,6.48860447 L247.257903,6.48860447 L254.562831,24.3647909 C254.111469,25.2647765 253.624474,25.5294782 252.715812,25.5294782 C252.020954,25.5294782 251.153865,25.229483 250.459006,24.8294894 L248.689194,28.4882547 C250.043278,29.2529484 251.474569,29.7176469 253.386916,29.7176469 C256.552384,29.7176469 258.078698,28.3529627 259.50405,24.7353732 L266.666442,6.49448673 L261.16696,6.49448673 Z" id="Fill-14" fill="#4E79F3"></path>
                <path d="M41.8884849,13.8296642 C41.7518887,14.8884709 41.4133677,15.8766905 40.8729219,16.7884407 C40.338415,17.6943087 39.661373,18.5001782 38.8536737,19.1884026 C38.3013499,19.6589833 37.7015144,20.0648592 37.0541672,20.4119125 C36.40682,20.7530836 35.7357169,21.0177852 35.034919,21.2177821 C34.3341211,21.4118966 33.6273843,21.5295418 32.9087695,21.5471886 C31.8338168,21.5707176 30.8479485,21.4177789 29.9452258,21.0766078 C29.0425031,20.7295545 28.2763766,20.2354447 27.6349683,19.5942785 C26.9935601,18.970759 26.5125039,18.2295943 26.1977387,17.3707844 C25.8829736,16.5178568 25.7641943,15.5825775 25.8592177,14.5708289 C25.9601801,13.553198 26.2630673,12.5943898 26.7560015,11.6826395 C27.2548745,10.7767716 27.8903438,9.95325527 28.6802262,9.23561962 C29.4760476,8.50621945 30.3728313,7.91211125 31.3824554,7.46505953 C32.3920795,7.01212556 33.4492153,6.74742388 34.5598018,6.67683677 C35.3021725,6.6297787 36.0148483,6.67683677 36.6859514,6.81212874 C37.3629934,6.95330296 37.9984627,7.17682882 38.5745423,7.47682405 C39.1624999,7.78270154 39.6791899,8.15328389 40.1305512,8.58857108 C40.7957153,9.24150188 41.2827105,10.0120779 41.5915367,10.8944168 C41.9063018,11.782638 42.0013253,12.7649753 41.876607,13.8296642 M45.2321224,13.6826077 C45.1014651,14.6590628 44.8342117,15.6061066 44.44224,16.5060923 C44.0502683,17.406078 43.5454562,18.2531233 42.9396818,19.0413461 C42.3398463,19.8295688 41.6628043,20.5472045 40.9026167,21.1883708 C40.1364902,21.8471838 39.2990961,22.4059985 38.3904344,22.8824615 C37.4995896,23.3530422 36.5671721,23.7177423 35.5872428,23.9765617 C34.6191915,24.2353811 33.6155063,24.3824376 32.5880653,24.4118489 C31.5843802,24.435378 30.6341458,24.3412618 29.7314231,24.1295005 C28.8227614,23.9177391 27.9972452,23.6118617 27.2370577,23.1942212 C27.0173159,23.0706938 26.7916353,22.9354018 26.5837715,22.8001099 C26.7560015,23.6942133 26.9222925,24.5883167 27.1064004,25.4765379 C25.983936,25.5059492 24.8733495,25.5294782 23.762763,25.5530073 C23.252012,22.9471663 22.735322,20.3295609 22.218632,17.6884264 C21.9513786,16.31786 21.6722472,14.935529 21.3990548,13.5590803 C20.686379,15.1531726 19.9737031,16.7413826 19.2788442,18.3178282 C18.5899242,19.8766269 17.8950653,21.4236611 17.2120843,22.9589309 C16.6300657,23.1236341 16.0421081,23.2824551 15.4660285,23.4412761 C13.0785645,21.4295434 10.7089173,19.4178107 8.33927021,17.4119602 C8.9391057,20.2589738 9.55081912,23.076576 10.1447156,25.8824138 C9.0935188,25.9059428 8.04826091,25.9353541 7.00894199,25.9530009 C6.52194684,23.7471536 6.03495169,21.5177773 5.55389551,19.2825187 C5.06690036,17.0413779 4.57396624,14.776708 4.08697109,12.5061559 C4.89467036,12.259101 5.71424757,12.0061638 6.53382477,11.7473444 C9.53300223,14.2531869 12.5321797,16.7590294 15.561052,19.2825187 C16.416263,17.3354908 17.2892908,15.3649339 18.1682577,13.3826125 C19.0531635,11.3826443 19.9558862,9.35326481 20.8645479,7.30623853 C21.7197589,7.04153685 22.5809089,6.77683518 23.4479978,6.50625125 C23.6439837,7.50623535 23.8340306,8.50621945 24.0300164,9.50032129 C24.0834671,9.78855201 24.1369178,10.0767827 24.1963074,10.3650134 C24.3685374,10.0650182 24.5467064,9.77090523 24.7486312,9.48855677 C25.300955,8.68856949 25.9304853,7.95328707 26.6431611,7.28270949 C27.3677149,6.60624966 28.1754142,6.0062592 29.0484421,5.48862037 C29.9274089,4.97098154 30.8598265,4.54745886 31.8456947,4.22393459 C32.8375019,3.90629258 33.8590039,3.70629576 34.9102008,3.62982639 C35.9732755,3.56512154 36.9888386,3.62394413 37.945012,3.81805869 C38.9011854,4.01217325 39.7920302,4.323933 40.5997295,4.73569116 C41.4193067,5.15921384 42.1497994,5.67685267 42.7793297,6.29448991 C43.3910431,6.90624489 43.9077331,7.6003515 44.3115828,8.37092748 C44.7213714,9.14150347 45.0123807,9.97678431 45.1786717,10.8650055 C45.3449627,11.7591089 45.3627796,12.6943882 45.2321224,13.6767255 M43.7889538,3.57100379 C39.1862557,0.923987054 32.5405536,-0.423050354 25.3900395,0.118117513 C18.2335863,0.65928538 12.0036118,2.87689718 7.44842542,5.97096564 C3.01201838,8.98268246 0.226643674,12.8767382 0.0128409253,16.8884391 C-0.195022859,20.9001401 2.13305152,24.3647909 6.10028031,26.8353398 C10.0972039,29.3294178 18.9937739,30.7999827 22.4977634,30.7529246 C22.9372468,30.7470423 23.2757678,30.7411601 23.5370823,30.7411601 L23.5489602,30.7293956 C23.5133264,30.7293956 23.5073875,30.7293956 23.5489602,30.7293956 C23.762763,30.7411601 25.0930912,30.7235133 23.5370823,30.7411601 C21.9573175,32.8528912 20.4072476,34.9410933 18.8749946,36.9998841 C22.0820358,35.4234386 25.3544057,33.8116995 28.6861652,32.1705491 C32.0832533,30.4941052 35.551609,28.7823677 39.0852933,27.0471012 L39.0793544,27.0471012 C42.1497994,25.5883008 44.7985779,23.7471536 46.7643754,21.6648338 C48.7598677,19.5531026 49.917966,18.1884185 50.4049611,14.6943564 C50.8978952,11.2002943 48.4391636,6.24743183 43.7889538,3.57100379" id="Fill-15" fill="#FFFFFF"></path>
            </g>
        </g>
    </g>
</svg>